<svg width="752" height="148" viewBox="0 0 752 148" fill="none" xmlns="http://www.w3.org/2000/svg">
<g clip-path="url(#clip0_1_2)">
<path d="M234.665 76.66C229.505 76.66 225.395 75.31 222.34 72.61C219.28 69.91 217.755 66.195 217.755 61.465H224.85C224.85 64.235 225.735 66.41 227.5 67.985C229.27 69.56 231.655 70.35 234.67 70.35C237.535 70.35 239.815 69.55 241.515 67.95C243.21 66.35 244.06 64.21 244.06 61.535C244.06 59.525 243.515 57.77 242.415 56.265C241.315 54.76 239.76 53.745 237.755 53.22L230.015 51.14C226.62 50.185 223.935 48.455 221.95 45.945C219.965 43.435 218.975 40.465 218.975 37.025C218.975 34.205 219.605 31.735 220.875 29.605C222.14 27.48 223.92 25.83 226.215 24.66C228.51 23.49 231.16 22.905 234.17 22.905C237.225 22.905 239.915 23.49 242.235 24.66C244.555 25.83 246.355 27.465 247.645 29.565C248.935 31.67 249.58 34.105 249.58 36.875H242.56C242.56 34.585 241.78 32.72 240.23 31.285C238.68 29.85 236.66 29.135 234.175 29.135C231.69 29.135 229.695 29.85 228.19 31.285C226.685 32.72 225.93 34.585 225.93 36.875C225.93 38.74 226.43 40.305 227.435 41.57C228.44 42.84 229.845 43.735 231.66 44.26L239.615 46.41C243.195 47.365 245.99 49.195 248 51.895C250.01 54.595 251.01 57.805 251.01 61.535C251.01 64.595 250.34 67.255 249.005 69.525C247.665 71.795 245.77 73.55 243.31 74.795C240.835 76.04 237.96 76.66 234.665 76.66Z" fill="#E8C469"/>
<path d="M281.315 75.945C277.92 75.945 275.235 74.965 273.25 73.005C271.27 71.045 270.275 68.445 270.275 65.195V42.98H259.025V36.53H270.275V25.42H277.37V36.53H293.35V42.98H277.37V65.125C277.37 66.415 277.74 67.465 278.48 68.28C279.22 69.09 280.21 69.495 281.455 69.495H292.99V75.945H281.315Z" fill="#E8C469"/>
<path d="M320.37 76.66C315.64 76.66 311.83 75.25 308.94 72.43C306.05 69.61 304.605 65.765 304.605 60.89V51.575C304.605 46.705 306.05 42.855 308.94 40.04C311.83 37.22 315.64 35.81 320.37 35.81C323.525 35.81 326.28 36.445 328.65 37.71C331.015 38.975 332.855 40.745 334.17 43.01C335.485 45.28 336.14 47.92 336.14 50.93V58.025H311.56V61.465C311.56 64.33 312.35 66.58 313.925 68.2C315.5 69.825 317.65 70.635 320.37 70.635C322.665 70.635 324.55 70.205 326.03 69.345C327.51 68.485 328.395 67.29 328.68 65.76H335.775C335.295 69.105 333.65 71.755 330.83 73.715C328.015 75.68 324.53 76.66 320.37 76.66ZM311.56 50.93V52.795H329.19V50.93C329.19 47.92 328.425 45.605 326.895 43.98C325.365 42.355 323.19 41.545 320.37 41.545C317.55 41.545 315.38 42.355 313.85 43.98C312.32 45.605 311.56 47.92 311.56 50.93Z" fill="#E8C469"/>
<path d="M348.175 88.8401V36.525H355.2V44.12H355.27C355.65 41.54 356.8 39.51 358.71 38.03C360.625 36.55 363.06 35.805 366.02 35.805C369.935 35.805 373.065 37.13 375.405 39.785C377.745 42.435 378.915 46.03 378.915 50.57V61.825C378.915 66.41 377.745 70.03 375.405 72.68C373.065 75.335 369.935 76.66 366.02 76.66C363.105 76.66 360.69 75.92 358.78 74.44C356.87 72.96 355.7 70.93 355.27 68.35H355.13L355.27 77.45V88.845H348.175V88.8401ZM363.51 70.495C366.14 70.495 368.18 69.815 369.64 68.45C371.095 67.09 371.825 64.88 371.825 61.825V50.645C371.825 47.59 371.095 45.375 369.64 44.015C368.18 42.655 366.14 41.975 363.51 41.975C360.98 41.975 358.97 42.765 357.49 44.34C356.01 45.92 355.265 48.14 355.265 51.005V61.47C355.265 64.335 356.005 66.56 357.49 68.135C358.975 69.71 360.98 70.495 363.51 70.495Z" fill="#E8C469"/>
<path d="M391.175 75.945V23.63H398.27V36.53L398.2 44.055H398.27C398.605 41.475 399.69 39.455 401.53 38C403.37 36.545 405.795 35.815 408.805 35.815C412.72 35.815 415.85 37.06 418.195 39.54C420.535 42.025 421.705 45.37 421.705 49.575V75.95H414.61V50.65C414.61 47.83 413.895 45.66 412.46 44.13C411.025 42.6 409.065 41.835 406.585 41.835C404.005 41.835 401.97 42.635 400.49 44.235C399.01 45.835 398.27 48.07 398.27 50.935V75.945H391.175Z" fill="#E8C469"/>
<path d="M449.365 76.66C444.635 76.66 440.825 75.25 437.935 72.43C435.04 69.61 433.6 65.765 433.6 60.89V51.575C433.6 46.705 435.045 42.855 437.935 40.04C440.825 37.22 444.635 35.81 449.365 35.81C452.52 35.81 455.28 36.445 457.645 37.71C460.01 38.975 461.85 40.745 463.165 43.01C464.48 45.28 465.135 47.92 465.135 50.93V58.025H440.55V61.465C440.55 64.33 441.34 66.58 442.915 68.2C444.49 69.825 446.64 70.635 449.365 70.635C451.66 70.635 453.545 70.205 455.025 69.345C456.505 68.485 457.39 67.29 457.68 65.76H464.775C464.3 69.105 462.65 71.755 459.83 73.715C457.01 75.68 453.525 76.66 449.365 76.66ZM440.55 50.93V52.795H458.18V50.93C458.18 47.92 457.415 45.605 455.885 43.98C454.355 42.355 452.18 41.545 449.365 41.545C446.545 41.545 444.37 42.355 442.845 43.98C441.315 45.605 440.55 47.92 440.55 50.93Z" fill="#E8C469"/>
<path d="M477.17 75.945V36.53H484.195V44.055H484.265C484.6 41.475 485.685 39.455 487.525 38C489.365 36.545 491.79 35.815 494.8 35.815C498.715 35.815 501.845 37.06 504.19 39.54C506.53 42.025 507.7 45.37 507.7 49.575V75.95H500.605V50.725C500.605 47.86 499.89 45.66 498.455 44.13C497.02 42.6 495.06 41.835 492.58 41.835C490 41.835 487.965 42.635 486.485 44.235C485.005 45.835 484.265 48.07 484.265 50.935V75.945H477.17Z" fill="#E8C469"/>
<path d="M564.315 76.66C559.49 76.66 555.655 75.31 552.81 72.61C549.97 69.91 548.545 66.195 548.545 61.465V38.03C548.545 33.345 549.965 29.655 552.81 26.96C555.65 24.26 559.485 22.91 564.315 22.91C569.09 22.91 572.905 24.27 575.745 26.995C578.585 29.72 580.01 33.395 580.01 38.03H572.92C572.92 35.21 572.15 33.04 570.625 31.51C569.095 29.98 566.995 29.215 564.32 29.215C561.595 29.215 559.47 29.98 557.945 31.51C556.415 33.04 555.655 35.215 555.655 38.03V61.465C555.655 64.33 556.42 66.53 557.945 68.06C559.475 69.59 561.6 70.35 564.32 70.35C566.995 70.35 569.095 69.585 570.625 68.06C572.15 66.53 572.92 64.33 572.92 61.465V54.66H562.745V48.35H580.015V61.465C580.015 66.15 578.595 69.85 575.75 72.575C572.9 75.3 569.09 76.66 564.315 76.66Z" fill="#E8C469"/>
<path d="M593.265 75.945V36.53H600.29V44.125H600.36C600.74 41.545 601.855 39.515 603.69 38.035C605.53 36.555 607.975 35.81 611.035 35.81C615.095 35.81 618.25 37.065 620.495 39.57C622.74 42.08 623.865 45.605 623.865 50.14V53.58H616.77V50.21C616.77 44.715 614.07 41.97 608.675 41.97C605.95 41.97 603.88 42.76 602.475 44.335C601.065 45.915 600.365 48.16 600.365 51.075V75.945H593.265Z" fill="#E8C469"/>
<path d="M650.025 76.66C645.295 76.66 641.485 75.25 638.595 72.43C635.7 69.61 634.26 65.765 634.26 60.89V51.575C634.26 46.705 635.705 42.855 638.595 40.04C641.485 37.22 645.295 35.81 650.025 35.81C653.18 35.81 655.94 36.445 658.3 37.71C660.665 38.975 662.505 40.745 663.82 43.01C665.135 45.28 665.79 47.92 665.79 50.93V58.025H641.205V61.465C641.205 64.33 641.995 66.58 643.57 68.2C645.145 69.825 647.295 70.635 650.02 70.635C652.31 70.635 654.2 70.205 655.68 69.345C657.16 68.485 658.045 67.29 658.335 65.76H665.43C664.955 69.105 663.305 71.755 660.485 73.715C657.665 75.68 654.18 76.66 650.025 76.66ZM641.205 50.93V52.795H658.835V50.93C658.835 47.92 658.07 45.605 656.54 43.98C655.01 42.355 652.835 41.545 650.02 41.545C647.2 41.545 645.025 42.355 643.5 43.98C641.97 45.605 641.205 47.92 641.205 50.93Z" fill="#E8C469"/>
<path d="M693.595 76.66C688.77 76.66 684.9 75.31 681.985 72.61C679.07 69.91 677.615 66.195 677.615 61.465V50.93C677.615 46.25 679.07 42.555 681.985 39.86C684.9 37.16 688.77 35.81 693.595 35.81C698.23 35.81 701.97 37.04 704.81 39.5C707.65 41.96 709.145 45.315 709.29 49.565H702.27C702.125 47.175 701.28 45.325 699.725 44.01C698.175 42.695 696.13 42.04 693.595 42.04C690.87 42.04 688.71 42.82 687.11 44.37C685.51 45.925 684.71 48.11 684.71 50.925V61.46C684.71 64.325 685.51 66.525 687.11 68.055C688.71 69.585 690.87 70.345 693.595 70.345C696.175 70.345 698.23 69.7 699.76 68.41C701.29 67.12 702.125 65.28 702.27 62.89H709.29C709.15 67.14 707.655 70.495 704.81 72.955C701.965 75.43 698.23 76.66 693.595 76.66Z" fill="#E8C469"/>
<path d="M736.02 76.515C731.195 76.515 727.36 75.13 724.52 72.36C721.675 69.59 720.255 65.72 720.255 60.75V51.72C720.255 46.75 721.675 42.885 724.52 40.11C727.36 37.34 731.195 35.955 736.02 35.955C740.845 35.955 744.68 37.34 747.52 40.11C750.365 42.88 751.785 46.75 751.785 51.72V60.75C751.785 65.72 750.36 69.59 747.52 72.36C744.68 75.13 740.845 76.515 736.02 76.515ZM736.02 70.28C738.695 70.28 740.81 69.525 742.365 68.025C743.915 66.52 744.695 64.31 744.695 61.395V51.075C744.695 48.16 743.92 45.95 742.365 44.445C740.815 42.94 738.695 42.19 736.02 42.19C733.345 42.19 731.23 42.945 729.675 44.445C728.125 45.95 727.345 48.16 727.345 51.075V61.395C727.345 64.31 728.12 66.52 729.675 68.025C731.23 69.525 733.34 70.28 736.02 70.28Z" fill="#E8C469"/>
<path d="M225.525 119.49C223.155 119.49 221.265 118.87 219.86 117.63C218.455 116.39 217.75 114.68 217.75 112.505H221.01C221.01 113.78 221.415 114.78 222.23 115.505C223.04 116.23 224.14 116.595 225.525 116.595C226.845 116.595 227.89 116.225 228.67 115.49C229.45 114.755 229.84 113.77 229.84 112.54C229.84 111.62 229.59 110.81 229.085 110.12C228.58 109.43 227.865 108.96 226.945 108.72L223.39 107.765C221.83 107.325 220.595 106.53 219.685 105.375C218.775 104.22 218.315 102.855 218.315 101.275C218.315 99.9801 218.61 98.845 219.19 97.865C219.77 96.885 220.59 96.1301 221.645 95.5901C222.7 95.0501 223.92 94.785 225.305 94.785C226.71 94.785 227.945 95.0551 229.01 95.5901C230.075 96.1301 230.905 96.88 231.495 97.845C232.09 98.81 232.385 99.93 232.385 101.205H229.155C229.155 100.15 228.8 99.295 228.085 98.635C227.37 97.975 226.445 97.6451 225.305 97.6451C224.16 97.6451 223.245 97.975 222.55 98.635C221.86 99.295 221.515 100.15 221.515 101.205C221.515 102.06 221.745 102.78 222.205 103.365C222.665 103.945 223.315 104.36 224.15 104.6L227.805 105.59C229.455 106.03 230.74 106.87 231.66 108.11C232.58 109.35 233.045 110.83 233.045 112.54C233.045 113.945 232.74 115.17 232.125 116.215C231.51 117.26 230.635 118.065 229.505 118.635C228.365 119.205 227.04 119.49 225.525 119.49Z" fill="white"/>
<path d="M245.16 119.425C242.94 119.425 241.18 118.79 239.875 117.515C238.57 116.24 237.915 114.46 237.915 112.18V108.03C237.915 105.745 238.57 103.97 239.875 102.695C241.18 101.42 242.945 100.785 245.16 100.785C247.38 100.785 249.14 101.42 250.445 102.695C251.75 103.97 252.405 105.745 252.405 108.03V112.18C252.405 114.465 251.75 116.245 250.445 117.515C249.14 118.785 247.375 119.425 245.16 119.425ZM245.16 116.555C246.39 116.555 247.36 116.21 248.075 115.515C248.785 114.825 249.145 113.81 249.145 112.465V107.72C249.145 106.38 248.785 105.365 248.075 104.675C247.36 103.98 246.39 103.635 245.16 103.635C243.93 103.635 242.96 103.98 242.245 104.675C241.535 105.365 241.175 106.38 241.175 107.72V112.465C241.175 113.805 241.53 114.82 242.245 115.515C242.96 116.21 243.93 116.555 245.16 116.555Z" fill="white"/>
<path d="M261.995 119.16V106.475H256.79V103.51H261.995V99.855C261.995 98.405 262.465 97.2551 263.41 96.3951C264.355 95.5401 265.64 95.11 267.265 95.11H272.57V98.04H267.265C265.925 98.04 265.255 98.655 265.255 99.885V103.51H272.565V106.475H265.255V119.16H261.995Z" fill="white"/>
<path d="M286.505 119.16C284.945 119.16 283.71 118.71 282.8 117.81C281.89 116.91 281.43 115.715 281.43 114.22V104.01H276.255V101.045H281.43V95.94H284.69V101.045H292.035V104.01H284.69V114.19C284.69 114.785 284.86 115.265 285.2 115.64C285.54 116.015 285.995 116.2 286.57 116.2H291.875V119.165H286.505V119.16Z" fill="white"/>
<path d="M298.395 119.16L295.46 101.04H298.23L300.01 113.395C300.075 113.945 300.14 114.535 300.205 115.175C300.27 115.81 300.315 116.33 300.335 116.725C300.38 116.33 300.435 115.815 300.5 115.175C300.565 114.54 300.64 113.945 300.73 113.395L302.905 101.04H306L308.175 113.395C308.265 113.945 308.345 114.53 308.425 115.155C308.5 115.78 308.565 116.305 308.605 116.72C308.65 116.305 308.705 115.78 308.77 115.155C308.835 114.53 308.9 113.94 308.965 113.395L310.81 101.04H313.445L310.38 119.16H306.89L304.88 106.97C304.795 106.375 304.71 105.72 304.635 104.995C304.555 104.27 304.495 103.7 304.455 103.28C304.435 103.7 304.37 104.27 304.275 104.995C304.175 105.72 304.08 106.38 303.995 106.97L301.92 119.16H298.395Z" fill="white"/>
<path d="M322.545 119.49C320.68 119.49 319.2 118.97 318.115 117.925C317.025 116.88 316.485 115.515 316.485 113.825C316.485 112.135 317.05 110.77 318.18 109.74C319.31 108.705 320.8 108.19 322.645 108.19H327.945V106.805C327.945 104.585 326.715 103.475 324.255 103.475C323.155 103.475 322.27 103.675 321.6 104.085C320.93 104.49 320.575 105.06 320.53 105.78H317.3C317.41 104.31 318.08 103.095 319.31 102.14C320.54 101.185 322.185 100.705 324.25 100.705C326.47 100.705 328.18 101.23 329.39 102.285C330.595 103.34 331.2 104.82 331.2 106.73V119.15H328.005V115.825H327.935C327.78 116.945 327.23 117.835 326.27 118.495C325.33 119.16 324.08 119.49 322.545 119.49ZM323.4 116.755C324.785 116.755 325.89 116.42 326.71 115.75C327.535 115.08 327.945 114.165 327.945 113V110.595H322.94C321.995 110.595 321.235 110.875 320.65 111.435C320.065 111.995 319.775 112.735 319.775 113.66C319.775 114.605 320.095 115.355 320.73 115.915C321.37 116.475 322.255 116.755 323.4 116.755Z" fill="white"/>
<path d="M337.665 119.16V101.04H340.895V104.53H340.93C341.105 103.345 341.615 102.41 342.46 101.73C343.305 101.05 344.43 100.71 345.835 100.71C347.7 100.71 349.15 101.285 350.185 102.44C351.215 103.595 351.735 105.215 351.735 107.3V108.88H348.475V107.33C348.475 104.805 347.235 103.54 344.75 103.54C343.5 103.54 342.55 103.905 341.9 104.625C341.25 105.35 340.93 106.38 340.93 107.72V119.15H337.665V119.16Z" fill="white"/>
<path d="M363.755 119.49C361.58 119.49 359.83 118.84 358.5 117.545C357.17 116.25 356.505 114.48 356.505 112.24V107.955C356.505 105.715 357.17 103.945 358.5 102.65C359.83 101.355 361.58 100.705 363.755 100.705C365.205 100.705 366.475 100.995 367.56 101.575C368.65 102.155 369.49 102.97 370.095 104.015C370.7 105.06 371 106.27 371 107.655V110.915H359.7V112.495C359.7 113.815 360.065 114.845 360.79 115.59C361.515 116.335 362.505 116.71 363.755 116.71C364.81 116.71 365.675 116.515 366.355 116.115C367.035 115.72 367.445 115.17 367.575 114.465H370.835C370.615 116.005 369.855 117.22 368.56 118.12C367.265 119.04 365.665 119.49 363.755 119.49ZM359.7 107.66V108.515H367.805V107.66C367.805 106.275 367.455 105.21 366.75 104.465C366.045 103.72 365.045 103.345 363.75 103.345C362.455 103.345 361.455 103.72 360.755 104.465C360.055 105.215 359.7 106.28 359.7 107.66Z" fill="white"/>
<path d="M396.6 119.16V95.11H410.6V98.04H399.825V105.19H409.445V108.025H399.825V116.23H410.6V119.16H396.6Z" fill="white"/>
<path d="M416.07 119.16V101.04H419.3V104.5H419.335C419.49 103.315 419.99 102.385 420.835 101.715C421.68 101.045 422.795 100.71 424.175 100.71C425.975 100.71 427.415 101.28 428.49 102.425C429.565 103.565 430.105 105.105 430.105 107.035V119.16H426.845V107.565C426.845 106.245 426.515 105.235 425.855 104.535C425.195 103.83 424.295 103.48 423.155 103.48C421.97 103.48 421.035 103.85 420.355 104.585C419.675 105.32 419.335 106.345 419.335 107.665V119.165H416.07V119.16Z" fill="white"/>
<path d="M438.17 125.09V122.19H443.275C444.265 122.19 445.05 121.91 445.645 121.35C446.24 120.79 446.535 120.025 446.535 119.06V117.545L446.605 114.415H446.57C446.35 115.535 445.815 116.405 444.975 117.02C444.13 117.635 443.045 117.94 441.73 117.94C439.86 117.94 438.39 117.34 437.315 116.145C436.24 114.95 435.7 113.305 435.7 111.22V107.495C435.7 105.41 436.235 103.755 437.315 102.535C438.39 101.315 439.86 100.705 441.73 100.705C443 100.705 444.065 101.01 444.91 101.63C445.755 102.245 446.295 103.09 446.54 104.165H446.575V101.035H449.77V119.09C449.77 120.935 449.185 122.395 448.025 123.47C446.86 124.545 445.28 125.085 443.28 125.085H438.17V125.09ZM442.75 115.205C443.915 115.205 444.835 114.84 445.52 114.12C446.2 113.395 446.54 112.375 446.54 111.055V107.66C446.54 106.365 446.2 105.355 445.52 104.63C444.84 103.905 443.915 103.545 442.75 103.545C441.54 103.545 440.61 103.89 439.95 104.585C439.29 105.275 438.96 106.215 438.96 107.4V111.355C438.96 112.54 439.29 113.48 439.95 114.17C440.61 114.86 441.54 115.205 442.75 115.205Z" fill="white"/>
<path d="M455.435 119.16V116.195H461.795V104.005H456.095V101.04H465.055V116.195H471.02V119.16H455.435ZM463.11 97.845C462.365 97.845 461.77 97.6551 461.33 97.2701C460.89 96.8851 460.67 96.365 460.67 95.705C460.67 95.025 460.89 94.4851 461.33 94.0901C461.77 93.6951 462.365 93.495 463.11 93.495C463.855 93.495 464.45 93.6951 464.89 94.0901C465.33 94.4851 465.545 95.025 465.545 95.705C465.545 96.365 465.325 96.8851 464.89 97.2701C464.45 97.6551 463.855 97.845 463.11 97.845Z" fill="white"/>
<path d="M475.365 119.16V101.04H478.595V104.5H478.63C478.785 103.315 479.285 102.385 480.13 101.715C480.975 101.045 482.09 100.71 483.475 100.71C485.275 100.71 486.715 101.28 487.79 102.425C488.865 103.565 489.405 105.105 489.405 107.035V119.16H486.145V107.565C486.145 106.245 485.815 105.235 485.155 104.535C484.495 103.83 483.595 103.48 482.455 103.48C481.27 103.48 480.335 103.85 479.655 104.585C478.975 105.32 478.635 106.345 478.635 107.665V119.165H475.365V119.16Z" fill="white"/>
<path d="M502.115 119.49C499.94 119.49 498.19 118.84 496.86 117.545C495.53 116.25 494.865 114.48 494.865 112.24V107.955C494.865 105.715 495.53 103.945 496.86 102.65C498.19 101.355 499.94 100.705 502.115 100.705C503.565 100.705 504.835 100.995 505.92 101.575C507.01 102.155 507.85 102.97 508.455 104.015C509.06 105.06 509.365 106.27 509.365 107.655V110.915H498.065V112.495C498.065 113.815 498.43 114.845 499.155 115.59C499.88 116.335 500.87 116.71 502.12 116.71C503.175 116.71 504.04 116.515 504.72 116.115C505.4 115.72 505.81 115.17 505.94 114.465H509.2C508.98 116.005 508.22 117.22 506.925 118.12C505.63 119.04 504.025 119.49 502.115 119.49ZM498.065 107.66V108.515H506.17V107.66C506.17 106.275 505.82 105.21 505.115 104.465C504.41 103.72 503.41 103.345 502.115 103.345C500.82 103.345 499.82 103.72 499.12 104.465C498.415 105.215 498.065 106.28 498.065 107.66Z" fill="white"/>
<path d="M521.88 119.49C519.705 119.49 517.955 118.84 516.625 117.545C515.295 116.25 514.63 114.48 514.63 112.24V107.955C514.63 105.715 515.295 103.945 516.625 102.65C517.95 101.355 519.705 100.705 521.88 100.705C523.33 100.705 524.6 100.995 525.685 101.575C526.775 102.155 527.615 102.97 528.22 104.015C528.825 105.06 529.13 106.27 529.13 107.655V110.915H517.83V112.495C517.83 113.815 518.195 114.845 518.92 115.59C519.645 116.335 520.635 116.71 521.885 116.71C522.94 116.71 523.805 116.515 524.485 116.115C525.165 115.72 525.575 115.17 525.705 114.465H528.965C528.745 116.005 527.985 117.22 526.69 118.12C525.395 119.04 523.79 119.49 521.88 119.49ZM517.83 107.66V108.515H525.935V107.66C525.935 106.275 525.585 105.21 524.88 104.465C524.175 103.72 523.175 103.345 521.88 103.345C520.585 103.345 519.585 103.72 518.885 104.465C518.18 105.215 517.83 106.28 517.83 107.66Z" fill="white"/>
<path d="M535.32 119.16V101.04H538.55V104.53H538.585C538.76 103.345 539.27 102.41 540.115 101.73C540.96 101.05 542.085 100.71 543.49 100.71C545.355 100.71 546.805 101.285 547.84 102.44C548.87 103.595 549.39 105.215 549.39 107.3V108.88H546.13V107.33C546.13 104.805 544.89 103.54 542.405 103.54C541.155 103.54 540.205 103.905 539.555 104.625C538.905 105.35 538.585 106.38 538.585 107.72V119.15H535.32V119.16Z" fill="white"/>
<path d="M66.2 33.31V0.515015L0.214966 66.5H33.205L66.2 33.31Z" fill="#E8C469"/>
<path d="M81.48 114.78H48.58L33.215 99.505V66.49L81.48 114.78Z" fill="#E8C469"/>
<path d="M21.605 76.205H0.214966L21.605 97.595V76.205Z" fill="#E8C469"/>
<path d="M190.12 66.49H157.13L124.32 33.5H157.13L190.12 66.49Z" fill="#E8C469"/>
<path d="M108.845 147.485V114.785L157.13 66.5V99.495L108.845 147.485Z" fill="#E8C469"/>
<path d="M168.73 76.205H190.12L168.73 97.595V76.205Z" fill="#E8C469"/>
<path d="M95.1601 37.3362L66.0064 66.49L95.1601 95.6437L124.314 66.4899L95.1601 37.3362Z" fill="white"/>
</g>
<defs>
<clipPath id="clip0_1_2">
<rect width="752" height="148" fill="white"/>
</clipPath>
</defs>
</svg>
